<svg width="27" height="27" viewBox="0 0 27 27" fill="none" xmlns="http://www.w3.org/2000/svg">
<path d="M11.0893 5.78561H15.9107C15.9107 5.14625 15.6567 4.53307 15.2046 4.08098C14.7525 3.62888 14.1393 3.3749 13.5 3.3749C12.8606 3.3749 12.2474 3.62888 11.7953 4.08098C11.3432 4.53307 11.0893 5.14625 11.0893 5.78561ZM9.64282 5.78561C9.64282 4.76263 10.0492 3.78155 10.7726 3.0582C11.4959 2.33484 12.477 1.92847 13.5 1.92847C14.5229 1.92847 15.504 2.33484 16.2274 3.0582C16.9507 3.78155 17.3571 4.76263 17.3571 5.78561H23.3839C23.5757 5.78561 23.7597 5.8618 23.8953 5.99743C24.0309 6.13306 24.1071 6.31702 24.1071 6.50882C24.1071 6.70063 24.0309 6.88458 23.8953 7.02021C23.7597 7.15584 23.5757 7.23204 23.3839 7.23204H22.1207L20.9471 21.3135C20.8618 22.3379 20.3945 23.2928 19.6381 23.9888C18.8817 24.6849 17.8913 25.0712 16.8634 25.0713H10.1365C9.1086 25.0712 8.11823 24.6849 7.36181 23.9888C6.60539 23.2928 6.13817 22.3379 6.05279 21.3135L4.87925 7.23204H3.61604C3.42423 7.23204 3.24028 7.15584 3.10465 7.02021C2.96902 6.88458 2.89282 6.70063 2.89282 6.50882C2.89282 6.31702 2.96902 6.13306 3.10465 5.99743C3.24028 5.8618 3.42423 5.78561 3.61604 5.78561H9.64282ZM7.49439 21.193C7.54954 21.8558 7.85178 22.4738 8.34118 22.9242C8.83057 23.3747 9.47139 23.6248 10.1365 23.6249H16.8634C17.5285 23.6248 18.1694 23.3747 18.6588 22.9242C19.1481 22.4738 19.4504 21.8558 19.5055 21.193L20.6704 7.23204H6.3305L7.49439 21.193ZM11.3303 10.607C11.5221 10.607 11.7061 10.6832 11.8417 10.8189C11.9773 10.9545 12.0535 11.1384 12.0535 11.3303V19.5267C12.0535 19.7185 11.9773 19.9024 11.8417 20.0381C11.7061 20.1737 11.5221 20.2499 11.3303 20.2499C11.1385 20.2499 10.9546 20.1737 10.8189 20.0381C10.6833 19.9024 10.6071 19.7185 10.6071 19.5267V11.3303C10.6071 11.1384 10.6833 10.9545 10.8189 10.8189C10.9546 10.6832 11.1385 10.607 11.3303 10.607ZM16.3928 11.3303C16.3928 11.1384 16.3166 10.9545 16.181 10.8189C16.0454 10.6832 15.8614 10.607 15.6696 10.607C15.4778 10.607 15.2938 10.6832 15.1582 10.8189C15.0226 10.9545 14.9464 11.1384 14.9464 11.3303V19.5267C14.9464 19.7185 15.0226 19.9024 15.1582 20.0381C15.2938 20.1737 15.4778 20.2499 15.6696 20.2499C15.8614 20.2499 16.0454 20.1737 16.181 20.0381C16.3166 19.9024 16.3928 19.7185 16.3928 19.5267V11.3303Z" fill="#111111"/>
</svg>
