<svg width="35" height="35" viewBox="0 0 35 35" fill="none" xmlns="http://www.w3.org/2000/svg">
<g clip-path="url(#clip0_253_1178)">
<path d="M30.606 4.39334C30.1384 3.92567 29.5832 3.55469 28.9721 3.30159C28.3611 3.04848 27.7062 2.91821 27.0448 2.91821C26.3834 2.91821 25.7285 3.04848 25.1175 3.30159C24.5064 3.55469 23.9512 3.92567 23.4835 4.39334L5.86104 22.0188C5.30554 22.5742 4.90963 23.2688 4.71479 24.0298L2.94511 30.9459C2.90606 31.0991 2.90753 31.2599 2.94939 31.4123C2.99124 31.5648 3.07203 31.7038 3.18383 31.8156C3.29563 31.9273 3.43458 32.0081 3.58704 32.05C3.73951 32.0918 3.90023 32.0933 4.05344 32.0543L10.971 30.2868C11.7326 30.0922 12.4277 29.6963 12.9835 29.1405L30.606 11.5151C31.5503 10.5706 32.0808 9.28977 32.0808 7.95422C32.0808 6.61867 31.5503 5.33781 30.606 4.39334ZM24.7727 5.6825C25.3753 5.07981 26.1926 4.74119 27.0449 4.74112C27.8972 4.74105 28.7146 5.07954 29.3172 5.68214C29.9199 6.28473 30.2586 7.10206 30.2586 7.95433C30.2587 8.80659 29.9202 9.62398 29.3176 10.2267L27.7083 11.8359L23.1642 7.29104L24.7727 5.6825ZM21.875 8.58021L26.4192 13.1251L11.6944 27.8514C11.37 28.1758 10.9642 28.407 10.5197 28.5207L5.0925 29.9076L6.48083 24.4819C6.59458 24.0371 6.82573 23.6317 7.14948 23.3079L21.875 8.57948V8.58021Z" fill="#111111"/>
</g>
<defs>
<clipPath id="clip0_253_1178">
<rect width="35" height="35" fill="white"/>
</clipPath>
</defs>
</svg>
