<svg width="33" height="33" viewBox="0 0 33 33" fill="none" xmlns="http://www.w3.org/2000/svg">
<path d="M25.5857 19.0674C25.2484 19.0675 24.9144 19.0011 24.6028 18.8722C24.2911 18.7432 24.008 18.5541 23.7694 18.3157C23.5308 18.0773 23.3416 17.7943 23.2124 17.4827C23.0832 17.1712 23.0167 16.8372 23.0166 16.5C23.0165 16.1627 23.0828 15.8287 23.2118 15.5171C23.3407 15.2054 23.5298 14.9223 23.7682 14.6837C24.0066 14.4451 24.2897 14.2559 24.6012 14.1267C24.9128 13.9976 25.2467 13.931 25.584 13.9309C26.2651 13.9307 26.9185 14.2011 27.4003 14.6825C27.882 15.164 28.1528 15.8172 28.1531 16.4983C28.1533 17.1794 27.8829 17.8328 27.4014 18.3146C26.9199 18.7963 26.2668 19.0671 25.5857 19.0674Z" fill="#777777"/>
<path d="M16.7714 19.0672C18.1893 19.0672 19.3388 17.9177 19.3388 16.4998C19.3388 15.0818 18.1893 13.9324 16.7714 13.9324C15.3534 13.9324 14.204 15.0818 14.204 16.4998C14.204 17.9177 15.3534 19.0672 16.7714 19.0672Z" fill="#777777"/>
<path d="M7.95546 19.0672C9.3734 19.0672 10.5229 17.9177 10.5229 16.4998C10.5229 15.0818 9.3734 13.9324 7.95546 13.9324C6.53753 13.9324 5.38806 15.0818 5.38806 16.4998C5.38806 17.9177 6.53753 19.0672 7.95546 19.0672Z" fill="#777777"/>
</svg>
