<svg width="104" height="104" viewBox="0 0 104 104" fill="none" xmlns="http://www.w3.org/2000/svg">
<circle cx="52" cy="52" r="52" fill="#BEFFCF"/>
<path d="M37 40.464C38.0609 40.464 39.0783 40.0774 39.8284 39.3893C40.5786 38.7012 41 37.7679 41 36.7947C41 35.8216 40.5786 34.8883 39.8284 34.2002C39.0783 33.5121 38.0609 33.1255 37 33.1255C35.9391 33.1255 34.9217 33.5121 34.1716 34.2002C33.4214 34.8883 33 35.8216 33 36.7947C33 37.7679 33.4214 38.7012 34.1716 39.3893C34.9217 40.0774 35.9391 40.464 37 40.464ZM39 67.9833C40.5913 67.9833 42.1174 67.4034 43.2426 66.3712C44.3679 65.339 45 63.9391 45 62.4794C45 61.0197 44.3679 59.6198 43.2426 58.5876C42.1174 57.5554 40.5913 56.9755 39 56.9755C37.4087 56.9755 35.8826 57.5554 34.7574 58.5876C33.6321 59.6198 33 61.0197 33 62.4794C33 63.9391 33.6321 65.339 34.7574 66.3712C35.8826 67.4034 37.4087 67.9833 39 67.9833ZM67 69.8179C68.5913 69.8179 70.1174 69.238 71.2426 68.2058C72.3679 67.1737 73 65.7737 73 64.314C73 62.8543 72.3679 61.4544 71.2426 60.4222C70.1174 59.39 68.5913 58.8102 67 58.8102C65.4087 58.8102 63.8826 59.39 62.7574 60.4222C61.6321 61.4544 61 62.8543 61 64.314C61 65.7737 61.6321 67.1737 62.7574 68.2058C63.8826 69.238 65.4087 69.8179 67 69.8179ZM51 55.1409C53.1217 55.1409 55.1566 54.3678 56.6569 52.9915C58.1571 51.6153 59 49.7487 59 47.8024C59 45.8562 58.1571 43.9896 56.6569 42.6134C55.1566 41.2371 53.1217 40.464 51 40.464C48.8783 40.464 46.8434 41.2371 45.3431 42.6134C43.8429 43.9896 43 45.8562 43 47.8024C43 49.7487 43.8429 51.6153 45.3431 52.9915C46.8434 54.3678 48.8783 55.1409 51 55.1409ZM63 40.464C64.0609 40.464 65.0783 40.0774 65.8284 39.3893C66.5786 38.7012 67 37.7679 67 36.7947C67 35.8216 66.5786 34.8883 65.8284 34.2002C65.0783 33.5121 64.0609 33.1255 63 33.1255C61.9391 33.1255 60.9217 33.5121 60.1716 34.2002C59.4214 34.8883 59 35.8216 59 36.7947C59 37.7679 59.4214 38.7012 60.1716 39.3893C60.9217 40.0774 61.9391 40.464 63 40.464Z" stroke="#02761F" stroke-width="4" stroke-linecap="round" stroke-linejoin="round"/>
<path d="M40 39.5464L44 43.2156M59 40.4637L57 42.2983M63 60.1859L57 53.306M43 57.8926L47 54.2233" stroke="#02761F" stroke-width="4" stroke-linecap="round" stroke-linejoin="round"/>
</svg>

