<svg width="104" height="104" viewBox="0 0 104 104" fill="none" xmlns="http://www.w3.org/2000/svg">
<circle cx="52" cy="52" r="52" fill="#FF8FB7"/>
<path fill-rule="evenodd" clip-rule="evenodd" d="M64.6875 33.3104C63.5375 32.6646 62.3125 32.6021 61.0187 32.7625C59.7895 32.9167 58.2916 33.3042 56.4937 33.7729L52.2874 34.8646C50.4895 35.3334 48.9937 35.7209 47.85 36.1854C46.6437 36.6729 45.602 37.3271 44.927 38.4625C44.2479 39.6042 44.1812 40.825 44.3499 42.1C44.5104 43.3021 44.9124 44.7604 45.3916 46.4979L46.5229 50.5896C47.002 52.3292 47.4062 53.7854 47.8874 54.9021C48.3979 56.0896 49.0791 57.1 50.2375 57.75C51.3875 58.3938 52.6125 58.4584 53.9083 58.2959C55.1375 58.1438 56.6354 57.7542 58.4333 57.2854L62.6395 56.1938C64.4375 55.7271 65.9333 55.3375 67.077 54.8729C68.2833 54.3854 69.3249 53.7313 70 52.5959C70.6791 51.4542 70.7458 50.2334 70.577 48.9604C70.4166 47.7584 70.0145 46.2979 69.5354 44.5604L68.4041 40.4688C67.925 38.7313 67.5208 37.2729 67.0395 36.1563C66.5291 34.9688 65.8437 33.9584 64.6875 33.3104ZM57.177 36.8229C59.1041 36.3229 60.402 35.9896 61.4062 35.8646C62.3666 35.7438 62.827 35.85 63.1625 36.0375C63.4895 36.2209 63.8041 36.5396 64.1687 37.3917C64.5541 38.2875 64.9041 39.5354 65.4208 41.4063L66.4916 45.2875C67.0104 47.1584 67.352 48.4084 67.4791 49.3709C67.6 50.2854 67.4916 50.7 67.3125 50.9979C67.1312 51.3042 66.802 51.6146 65.9062 51.9771C64.9729 52.3542 63.677 52.6959 61.75 53.1959L57.75 54.2354C55.8229 54.7354 54.5249 55.0688 53.5208 55.1938C52.5583 55.3167 52.1 55.2104 51.7645 55.0229C51.4375 54.8396 51.1229 54.5188 50.7583 53.6688C50.3729 52.7729 50.0229 51.5229 49.5062 49.6521L48.4354 45.7729C47.9166 43.8979 47.5749 42.65 47.4479 41.6896C47.327 40.7729 47.4354 40.3604 47.6145 40.0604C47.7958 39.7542 48.1249 39.4438 49.0208 39.0813C49.9541 38.7042 51.2499 38.3646 53.177 37.8625L57.177 36.8229Z" fill="#A4043D"/>
<path fill-rule="evenodd" clip-rule="evenodd" d="M33.6666 37.8438C33.2719 37.747 32.855 37.8078 32.5044 38.0133C32.1538 38.2188 31.8971 38.5528 31.7887 38.9445C31.6803 39.3361 31.7287 39.7546 31.9237 40.1112C32.1188 40.4677 32.445 40.7342 32.8333 40.8542L36.3812 41.8396C37.2687 42.0854 37.9291 42.7563 38.1541 43.5709L42.2208 58.2854C42.0634 58.3166 41.9071 58.3527 41.752 58.3938C37.6333 59.4625 35.1166 63.6063 36.2458 67.7C37.3708 71.7729 41.6499 74.1209 45.752 73.0542C49.3437 72.1229 51.7166 68.8542 51.5166 65.3209L69.0583 60.7625C69.2569 60.711 69.4434 60.6208 69.6072 60.4971C69.771 60.3735 69.9088 60.2188 70.0128 60.0418C70.1167 59.8649 70.1849 59.6693 70.2132 59.466C70.2416 59.2628 70.2296 59.0559 70.1781 58.8573C70.1265 58.6587 70.0363 58.4722 69.9127 58.3084C69.789 58.1446 69.6343 58.0068 69.4574 57.9028C69.2805 57.7989 69.0848 57.7307 68.8816 57.7024C68.6783 57.674 68.4715 57.686 68.2729 57.7375L50.6937 62.3063C50.1678 61.3013 49.4276 60.424 48.5255 59.7365C47.6234 59.0489 46.5813 58.5678 45.4729 58.3271L41.1666 42.7375C40.9023 41.7997 40.3995 40.9464 39.7072 40.2607C39.015 39.575 38.1569 39.0804 37.2166 38.825L33.6687 37.8417L33.6666 37.8438ZM42.5395 61.4167C45.0645 60.7625 47.5979 62.2271 48.2479 64.5813C48.8937 66.9146 47.477 69.3792 44.9687 70.0313C42.4437 70.6875 39.9104 69.2209 39.2604 66.8667C38.6145 64.5334 40.0312 62.0688 42.5395 61.4167Z" fill="#A4043D"/>
</svg>

