<svg width="104" height="104" viewBox="0 0 104 104" fill="none" xmlns="http://www.w3.org/2000/svg">
<circle cx="52" cy="52" r="52" fill="#FF4105"/>
<g clip-path="url(#clip0_0_1)">
<path d="M31.6875 52C31.6875 46.6128 33.8276 41.4462 37.6369 37.6369C41.4462 33.8276 46.6128 31.6875 52 31.6875C57.3872 31.6875 62.5538 33.8276 66.3631 37.6369C70.1725 41.4462 72.3125 46.6128 72.3125 52C72.3125 52.6216 72.5594 53.2178 72.999 53.6573C73.4385 54.0968 74.0347 54.3438 74.6563 54.3438C75.2779 54.3438 75.874 54.0968 76.3135 53.6573C76.7531 53.2178 77 52.6216 77 52C77 47.0555 75.5338 42.222 72.7868 38.1108C70.0397 33.9995 66.1353 30.7952 61.5671 28.903C56.9989 27.0108 51.9723 26.5157 47.1228 27.4804C42.2732 28.445 37.8187 30.826 34.3223 34.3223C30.826 37.8187 28.445 42.2732 27.4804 47.1228C26.5157 51.9723 27.0108 56.9989 28.903 61.5671C30.7952 66.1353 33.9995 70.0397 38.1108 72.7868C42.222 75.5338 47.0555 77 52 77C52.6216 77 53.2178 76.7531 53.6573 76.3135C54.0968 75.874 54.3438 75.2779 54.3438 74.6563C54.3438 74.0347 54.0968 73.4385 53.6573 72.999C53.2178 72.5594 52.6216 72.3125 52 72.3125C46.6128 72.3125 41.4462 70.1725 37.6369 66.3631C33.8276 62.5538 31.6875 57.3872 31.6875 52Z" fill="#9F2600"/>
<path d="M54.1156 65.8344L63.1656 74.8844C63.2749 74.9939 63.4142 75.0686 63.566 75.0988C63.7177 75.1291 63.875 75.1136 64.0179 75.0544C64.1608 74.9951 64.283 74.8948 64.3688 74.766C64.4546 74.6373 64.5003 74.486 64.5 74.3313V67.625H74.6563C75.2779 67.625 75.874 67.3781 76.3135 66.9385C76.7531 66.499 77 65.9029 77 65.2813C77 64.6597 76.7531 64.0635 76.3135 63.624C75.874 63.1844 75.2779 62.9375 74.6563 62.9375H64.5V56.2313C64.5003 56.0765 64.4546 55.9252 64.3688 55.7965C64.283 55.6678 64.1608 55.5674 64.0179 55.5082C63.875 55.4489 63.7177 55.4334 63.566 55.4637C63.4142 55.494 63.2749 55.5686 63.1656 55.6781L54.1156 64.7281C54.0429 64.8007 53.9852 64.8869 53.9458 64.9818C53.9064 65.0767 53.8861 65.1785 53.8861 65.2813C53.8861 65.384 53.9064 65.4858 53.9458 65.5807C53.9852 65.6756 54.0429 65.7618 54.1156 65.8344ZM62.25 48.1875C62.4675 47.97 62.64 47.7118 62.7577 47.4276C62.8755 47.1434 62.936 46.8389 62.936 46.5313C62.936 46.2237 62.8755 45.9191 62.7577 45.6349C62.64 45.3507 62.4675 45.0925 62.25 44.875C62.0325 44.6575 61.7743 44.485 61.4901 44.3673C61.2059 44.2496 60.9014 44.189 60.5938 44.189C60.2862 44.189 59.9816 44.2496 59.6974 44.3673C59.4132 44.485 59.155 44.6575 58.9375 44.875L49.6563 54.1531L45.0625 49.5625C44.845 49.345 44.5868 49.1725 44.3026 49.0548C44.0184 48.9371 43.7139 48.8765 43.4063 48.8765C43.0987 48.8765 42.7941 48.9371 42.5099 49.0548C42.2257 49.1725 41.9675 49.345 41.75 49.5625C41.5325 49.78 41.36 50.0382 41.2423 50.3224C41.1246 50.6066 41.064 50.9112 41.064 51.2188C41.064 51.5264 41.1246 51.8309 41.2423 52.1151C41.36 52.3993 41.5325 52.6575 41.75 52.875L48 59.125C48.2174 59.3427 48.4756 59.5154 48.7598 59.6333C49.044 59.7511 49.3486 59.8117 49.6563 59.8117C49.9639 59.8117 50.2685 59.7511 50.5527 59.6333C50.8369 59.5154 51.0951 59.3427 51.3125 59.125L62.25 48.1875Z" fill="#9F2600"/>
</g>
<defs>
<clipPath id="clip0_0_1">
<rect width="50" height="50" fill="white" transform="translate(27 27)"/>
</clipPath>
</defs>
</svg>
